<svg viewBox="0 0 300 210" width="300" height="210" xmlns="http://www.w3.org/2000/svg" style="display:block;margin:0.5rem auto;background-color:#f8fafc;border-radius:12px;border:1px solid #e2e8f0;">
<g transform="translate(20,20)"><line x1="0" y1="145" x2="260" y2="145" stroke="#94a3b8" stroke-width="1.2"/><polyline points="20.0,136.8 24.1,134.9 28.2,133.0 32.2,131.1 36.3,129.2 40.4,127.4 44.5,125.6 48.6,123.9 52.6,122.2 56.7,120.5 60.8,119.0 64.9,117.5 69.0,116.0 73.0,114.7 77.1,113.4 81.2,112.3 85.3,111.2 89.4,110.2 93.4,109.4 97.5,108.6 101.6,108.0 105.7,107.5 109.8,107.0 113.8,106.7 117.9,106.6 122.0,106.5 126.1,106.6 130.2,106.7 134.2,107.0 138.3,107.5 142.4,108.0 146.5,108.6 150.6,109.4 154.6,110.2 158.7,111.2 162.8,112.3 166.9,113.4 171.0,114.7 175.0,116.0 179.1,117.5 183.2,119.0 187.3,120.5 191.4,122.2 195.4,123.9 199.5,125.6 203.6,127.4 207.7,129.2 211.8,131.1 215.8,133.0 219.9,134.9 224.0,136.8 224.0,145.0 219.9,143.9 215.8,142.8 211.8,141.7 207.7,140.6 203.6,139.6 199.5,138.5 195.4,137.5 191.4,136.5 187.3,135.6 183.2,134.7 179.1,133.8 175.0,133.0 171.0,132.2 166.9,131.4 162.8,130.8 158.7,130.1 154.6,129.6 150.6,129.1 146.5,128.6 142.4,128.3 138.3,128.0 134.2,127.7 130.2,127.5 126.1,127.4 122.0,127.4 117.9,127.4 113.8,127.5 109.8,127.7 105.7,128.0 101.6,128.3 97.5,128.6 93.4,129.1 89.4,129.6 85.3,130.1 81.2,130.8 77.1,131.4 73.0,132.2 69.0,133.0 64.9,133.8 60.8,134.7 56.7,135.6 52.6,136.5 48.6,137.5 44.5,138.5 40.4,139.6 36.3,140.6 32.2,141.7 28.2,142.8 24.1,143.9 20.0,145.0" fill="#dbeafe" stroke="none" stroke-width="2.4" /><polyline points="20.0,136.8 24.1,134.9 28.2,133.0 32.2,131.1 36.3,129.2 40.4,127.4 44.5,125.6 48.6,123.9 52.6,122.2 56.7,120.5 60.8,119.0 64.9,117.5 69.0,116.0 73.0,114.7 77.1,113.4 81.2,112.3 85.3,111.2 89.4,110.2 93.4,109.4 97.5,108.6 101.6,108.0 105.7,107.5 109.8,107.0 113.8,106.7 117.9,106.6 122.0,106.5 126.1,106.6 130.2,106.7 134.2,107.0 138.3,107.5 142.4,108.0 146.5,108.6 150.6,109.4 154.6,110.2 158.7,111.2 162.8,112.3 166.9,113.4 171.0,114.7 175.0,116.0 179.1,117.5 183.2,119.0 187.3,120.5 191.4,122.2 195.4,123.9 199.5,125.6 203.6,127.4 207.7,129.2 211.8,131.1 215.8,133.0 219.9,134.9 224.0,136.8" fill="none" stroke="#1e293b" stroke-width="2" stroke-dasharray="4 3"/><polyline points="20.0,145.0 24.1,143.9 28.2,142.8 32.2,141.7 36.3,140.6 40.4,139.6 44.5,138.5 48.6,137.5 52.6,136.5 56.7,135.6 60.8,134.7 64.9,133.8 69.0,133.0 73.0,132.2 77.1,131.4 81.2,130.8 85.3,130.1 89.4,129.6 93.4,129.1 97.5,128.6 101.6,128.3 105.7,128.0 109.8,127.7 113.8,127.5 117.9,127.4 122.0,127.4 126.1,127.4 130.2,127.5 134.2,127.7 138.3,128.0 142.4,128.3 146.5,128.6 150.6,129.1 154.6,129.6 158.7,130.1 162.8,130.8 166.9,131.4 171.0,132.2 175.0,133.0 179.1,133.8 183.2,134.7 187.3,135.6 191.4,136.5 195.4,137.5 199.5,138.5 203.6,139.6 207.7,140.6 211.8,141.7 215.8,142.8 219.9,143.9 224.0,145.0" fill="none" stroke="#2563eb" stroke-width="2.4" /><text x="20.0" y="161.0" font-family="system-ui,-apple-system,sans-serif" font-size="11" font-weight="600" fill="#1e293b" stroke="#f8fafc" stroke-width="3" paint-order="stroke" text-anchor="middle">a</text><text x="224.0" y="161.0" font-family="system-ui,-apple-system,sans-serif" font-size="11" font-weight="600" fill="#1e293b" stroke="#f8fafc" stroke-width="3" paint-order="stroke" text-anchor="middle">d</text><text x="33.0" y="120.9" font-family="system-ui,-apple-system,sans-serif" font-size="10" font-weight="600" fill="#1e293b" stroke="#f8fafc" stroke-width="3" paint-order="stroke" text-anchor="middle">f(x)</text><text x="194.0" y="152.2" font-family="system-ui,-apple-system,sans-serif" font-size="10" font-weight="600" fill="#1e3a8a" stroke="#f8fafc" stroke-width="3" paint-order="stroke" text-anchor="middle">g(x)</text></g></svg>