<svg viewBox="0 0 256 206" width="256" height="206" xmlns="http://www.w3.org/2000/svg" style="display:block;margin:0.5rem auto;background-color:#f8fafc;border-radius:12px;border:1px solid #e2e8f0;">
<g transform="translate(18,18)"><line x1="0" y1="150" x2="220" y2="150" stroke="#94a3b8" stroke-width="1.2"/><line x1="90" y1="0" x2="90" y2="170" stroke="#94a3b8" stroke-width="1.2"/><polyline points="3.6,65.8 7.9,74.0 12.2,81.8 16.6,89.1 20.9,96.1 25.2,102.6 29.5,108.7 33.8,114.4 38.2,119.7 42.5,124.5 46.8,128.9 51.1,132.9 55.4,136.5 59.8,139.7 64.1,142.4 68.4,144.7 72.7,146.6 77.0,148.1 81.4,149.2 85.7,149.8 90.0,150.0 94.3,149.8 98.6,149.2 103.0,148.1 107.3,146.6 111.6,144.7 115.9,142.4 120.2,139.7 124.6,136.5 128.9,132.9 133.2,128.9 137.5,124.5 141.8,119.7 146.2,114.4 150.5,108.7 154.8,102.6 159.1,96.1 163.4,89.1 167.8,81.8 172.1,74.0 176.4,65.8" fill="none" stroke="#2563eb" stroke-width="2.2" /><line x1="42.0" y1="150.0" x2="150.0" y2="109.4" stroke="#059669" stroke-width="1.6"/><circle cx="42.0" cy="150.0" r="3" fill="#1e293b"/><circle cx="150.0" cy="109.4" r="3" fill="#1e293b"/><text x="42.0" y="164.0" font-family="system-ui,-apple-system,sans-serif" font-size="9" font-weight="600" fill="#1e293b" stroke="#f8fafc" stroke-width="3" paint-order="stroke" text-anchor="middle">A(-2,0)</text><text x="156.0" y="101.4" font-family="system-ui,-apple-system,sans-serif" font-size="9" font-weight="600" fill="#1e293b" stroke="#f8fafc" stroke-width="3" paint-order="stroke" text-anchor="start">T(t,t²)</text></g></svg>