<svg xmlns="http://www.w3.org/2000/svg" viewBox="0 0 320 250" width="100%" height="100%">
  <!-- Dashed back edges -->
  <line x1="50" y1="200" x2="110" y2="170" stroke="#94a3b8" stroke-width="2" stroke-dasharray="4,4" />
  <line x1="110" y1="170" x2="260" y2="170" stroke="#94a3b8" stroke-width="2" stroke-dasharray="4,4" />
  <line x1="110" y1="170" x2="110" y2="50" stroke="#94a3b8" stroke-width="2" stroke-dasharray="4,4" />
  
  <!-- Faces -->
  <polygon points="50,80 140,80 200,50 110,50" fill="#e2e8f0" stroke="#334155" stroke-width="2" />
  <polygon points="140,80 140,110 200,80 200,50" fill="#cbd5e1" stroke="#334155" stroke-width="2" />
  <polygon points="140,110 200,110 260,80 200,80" fill="#e2e8f0" stroke="#334155" stroke-width="2" />
  <polygon points="200,110 200,200 260,170 260,80" fill="#cbd5e1" stroke="#334155" stroke-width="2" />
  <polygon points="50,200 200,200 200,110 140,110 140,80 50,80" fill="#f8fafc" stroke="#334155" stroke-width="2" />

  <!-- Labels -->
  <text x="10" y="140" font-family="sans-serif" font-size="14" fill="#0f172a">20 cm</text>
  <text x="270" y="140" font-family="sans-serif" font-size="14" fill="#0f172a">15 cm</text>
  <text x="115" y="72" font-family="sans-serif" font-size="14" fill="#0f172a" text-anchor="middle">15 cm</text>
  <text x="180" y="108" font-family="sans-serif" font-size="14" fill="#0f172a" text-anchor="middle">10 cm</text>
  <text x="225" y="198" font-family="sans-serif" font-size="14" fill="#0f172a">50 cm</text>
</svg>