<svg viewBox="0 0 260 170" xmlns="http://www.w3.org/2000/svg" width="100%" height="auto"><line x1="10" y1="90" x2="250" y2="90" stroke="#475569" stroke-width="2"/><path d="M 15 90 C 25 65, 35 65, 45 90 C 55 115, 65 115, 75 90 C 85 65, 95 65, 105 90 C 115 115, 125 115, 135 90 C 145 65, 155 65, 165 90 C 175 115, 185 115, 195 90" stroke="#94a3b8" stroke-width="2" fill="none" stroke-dasharray="4,3"/><text x="10" y="30" font-family="system-ui" font-size="11" font-weight="600" fill="#64748b">f(x)=½sin4x (small, fast)</text><path d="M 15 90 C 40 30, 80 30, 105 90 C 130 150, 170 150, 195 90" stroke="#0ea5e9" stroke-width="2.5" fill="none"/><text x="10" y="165" font-family="system-ui" font-size="11" font-weight="700" fill="#0ea5e9">g(x)=sin2x (bigger, slower — both doubled)</text></svg>