<svg xmlns="http://www.w3.org/2000/svg" viewBox="0 0 300 240" width="300" height="240" style="display: block; margin: 0 auto; background: #fafafa; border: 1px solid #e2e8f0; border-radius: 8px;">
  <line x1="28.0" y1="18" x2="28.0" y2="216.0" stroke="#f1f5f9" stroke-width="1"/>
  <line x1="51.1" y1="18" x2="51.1" y2="216.0" stroke="#f1f5f9" stroke-width="1"/>
  <line x1="97.3" y1="18" x2="97.3" y2="216.0" stroke="#f1f5f9" stroke-width="1"/>
  <line x1="120.4" y1="18" x2="120.4" y2="216.0" stroke="#f1f5f9" stroke-width="1"/>
  <line x1="143.5" y1="18" x2="143.5" y2="216.0" stroke="#f1f5f9" stroke-width="1"/>
  <line x1="166.5" y1="18" x2="166.5" y2="216.0" stroke="#f1f5f9" stroke-width="1"/>
  <line x1="189.6" y1="18" x2="189.6" y2="216.0" stroke="#f1f5f9" stroke-width="1"/>
  <line x1="212.7" y1="18" x2="212.7" y2="216.0" stroke="#f1f5f9" stroke-width="1"/>
  <line x1="235.8" y1="18" x2="235.8" y2="216.0" stroke="#f1f5f9" stroke-width="1"/>
  <line x1="258.9" y1="18" x2="258.9" y2="216.0" stroke="#f1f5f9" stroke-width="1"/>
  <line x1="282.0" y1="18" x2="282.0" y2="216.0" stroke="#f1f5f9" stroke-width="1"/>
  <line x1="28" y1="216.0" x2="282.0" y2="216.0" stroke="#f1f5f9" stroke-width="1"/>
  <line x1="28" y1="194.0" x2="282.0" y2="194.0" stroke="#f1f5f9" stroke-width="1"/>
  <line x1="28" y1="172.0" x2="282.0" y2="172.0" stroke="#f1f5f9" stroke-width="1"/>
  <line x1="28" y1="150.0" x2="282.0" y2="150.0" stroke="#f1f5f9" stroke-width="1"/>
  <line x1="28" y1="106.0" x2="282.0" y2="106.0" stroke="#f1f5f9" stroke-width="1"/>
  <line x1="28" y1="84.0" x2="282.0" y2="84.0" stroke="#f1f5f9" stroke-width="1"/>
  <line x1="28" y1="62.0" x2="282.0" y2="62.0" stroke="#f1f5f9" stroke-width="1"/>
  <line x1="28" y1="40.0" x2="282.0" y2="40.0" stroke="#f1f5f9" stroke-width="1"/>
  <line x1="28" y1="18.0" x2="282.0" y2="18.0" stroke="#f1f5f9" stroke-width="1"/>
  <line x1="28" y1="128.0" x2="282.0" y2="128.0" stroke="#64748b" stroke-width="1.5"/>
  <line x1="74.2" y1="18" x2="74.2" y2="216.0" stroke="#64748b" stroke-width="1.5"/>
  <text x="284.0" y="142.0" font-size="12" fill="#64748b" font-weight="bold">x</text>
  <text x="80.2" y="22.0" font-size="12" fill="#64748b" font-weight="bold">y</text>
  <text x="28.0" y="140.0" font-size="9" fill="#94a3b8" text-anchor="middle">-2</text>
  <text x="51.1" y="140.0" font-size="9" fill="#94a3b8" text-anchor="middle">-1</text>
  <text x="97.3" y="140.0" font-size="9" fill="#94a3b8" text-anchor="middle">1</text>
  <text x="120.4" y="140.0" font-size="9" fill="#94a3b8" text-anchor="middle">2</text>
  <text x="143.5" y="140.0" font-size="9" fill="#94a3b8" text-anchor="middle">3</text>
  <text x="166.5" y="140.0" font-size="9" fill="#94a3b8" text-anchor="middle">4</text>
  <text x="189.6" y="140.0" font-size="9" fill="#94a3b8" text-anchor="middle">5</text>
  <text x="212.7" y="140.0" font-size="9" fill="#94a3b8" text-anchor="middle">6</text>
  <text x="235.8" y="140.0" font-size="9" fill="#94a3b8" text-anchor="middle">7</text>
  <text x="258.9" y="140.0" font-size="9" fill="#94a3b8" text-anchor="middle">8</text>
  <text x="282.0" y="140.0" font-size="9" fill="#94a3b8" text-anchor="middle">9</text>
  <text x="68.2" y="219.0" font-size="9" fill="#94a3b8" text-anchor="end">-4</text>
  <text x="68.2" y="197.0" font-size="9" fill="#94a3b8" text-anchor="end">-3</text>
  <text x="68.2" y="175.0" font-size="9" fill="#94a3b8" text-anchor="end">-2</text>
  <text x="68.2" y="153.0" font-size="9" fill="#94a3b8" text-anchor="end">-1</text>
  <text x="68.2" y="109.0" font-size="9" fill="#94a3b8" text-anchor="end">1</text>
  <text x="68.2" y="87.0" font-size="9" fill="#94a3b8" text-anchor="end">2</text>
  <text x="68.2" y="65.0" font-size="9" fill="#94a3b8" text-anchor="end">3</text>
  <text x="68.2" y="43.0" font-size="9" fill="#94a3b8" text-anchor="end">4</text>
  <text x="68.2" y="21.0" font-size="9" fill="#94a3b8" text-anchor="end">5</text>
  <path d="M 28.0,62.0 L 143.5,172.0 L 282.0,40.0" fill="none" stroke="#6366f1" stroke-width="2.5" stroke-linejoin="round" stroke-linecap="round"/>
  <text x="244.4" y="73.6" font-size="10" fill="#6366f1" font-weight="bold">y = |x − 3| − 2</text>
  <circle cx="143.5" cy="172.0" r="3.5" fill="#ef4444"/><text x="151.5" y="164.0" font-size="10" fill="#ef4444" font-weight="bold">(3, -2)</text>
</svg>